<?xml version="1.0" encoding="UTF-8" standalone="no"?>
<svg
   viewBox="0 0 200 200"
   role="img"
   aria-label="Metro Ink and Stitch"
   version="1.1"
   id="svg60"
   xmlns="http://www.w3.org/2000/svg"
   xmlns:svg="http://www.w3.org/2000/svg">
  <defs
     id="defs64" />
  <!-- Cream background circle -->
  <circle
     cx="100"
     cy="100"
     r="92"
     fill="#f3ecdb"
     stroke="#0d0d0d"
     stroke-width="6"
     id="circle2" />
  <!-- Skyline silhouette -->
  <g
     transform="translate(100,105)"
     stroke="#0d0d0d"
     fill="#0d0d0d"
     id="g46">
    <!-- baseline -->
    <path
       id="line4"
       style="fill:none;stroke-width:2"
       d="M -65,20 H 65" />
    <!-- Far left low blocks -->
    <path
       id="rect6"
       d="m -62,8 h 10 v 14 h -10 z" />
    <!-- Reunion Tower (signature) -->
    <g
       transform="translate(-40)"
       id="g18">
      <path
         id="rect8"
         d="M -2,-30 H 2 V 20 H -2 Z" />
      <path
         id="circle10"
         d="M 11,-36 A 11,11 0 0 1 0,-25 11,11 0 0 1 -11,-36 11,11 0 0 1 0,-47 11,11 0 0 1 11,-36 Z" />
      <path
         id="line12"
         style="stroke:#f3ecdb;stroke-width:1.5"
         d="M -9,-40 H 9" />
      <path
         id="line14"
         style="stroke:#f3ecdb;stroke-width:1.5"
         d="M -10,-36 H 10" />
      <path
         id="line16"
         style="stroke:#f3ecdb;stroke-width:1.5"
         d="M -9,-32 H 9" />
    </g>
    <!-- BoA Plaza (tallest) -->
    <g
       transform="translate(-15)"
       id="g28">
      <path
         id="rect20"
         d="M -11,-58 H 11 V 20 H -11 Z" />
      <path
         id="line22"
         style="stroke:#f3ecdb"
         d="M -6,-54 V 18" />
      <path
         id="line24"
         style="stroke:#f3ecdb"
         d="M 0,-54 V 18" />
      <path
         id="line26"
         style="stroke:#f3ecdb"
         d="M 6,-54 V 18" />
    </g>
    <!-- Comerica (pyramidal) -->
    <g
       transform="translate(15)"
       id="g38">
      <path
         id="rect30"
         d="M -13,-42 H 13 V 20 H -13 Z" />
      <path
         id="polygon32"
         d="M -13,-42 H 13 L 0,-58 Z" />
      <path
         id="line34"
         style="stroke:#f3ecdb"
         d="M -6,-40 V 18" />
      <path
         id="line36"
         style="stroke:#f3ecdb"
         d="M 6,-40 V 18" />
    </g>
    <!-- Fountain Place -->
    <g
       transform="translate(45)"
       id="g44">
      <path
         id="polygon40"
         d="m 4,-50 9,18 v 52 h -26 v -52 l 9,-18 z" />
      <path
         id="line42"
         style="stroke:#f3ecdb"
         d="M 0,-44 V 18" />
    </g>
  </g>
  <!-- "M·I·S" inside the lower curve -->
  <g
     aria-label="M·I·S"
     id="text52"
     style="font-weight:900;font-size:22px;font-family:'Archivo Black', 'Helvetica Neue', Impact, sans-serif;letter-spacing:3;text-anchor:middle;fill:#0d0d0d">
    <path
       d="m 78.698993,160 v -5.456 q 0,-1.012 0.066,-2.068 0.088,-1.078 0.176,-1.804 0.088,-0.726 0.11,-0.924 h -0.088 l -2.794,10.252 h -3.806 l -2.816,-10.23 h -0.088 q 0.022,0.198 0.11,0.924 0.11,0.704 0.198,1.782 0.088,1.056 0.088,2.068 V 160 h -4.466 v -15.136 h 6.864 l 2.288,8.734 h 0.088 l 2.266,-8.734 h 6.622 V 160 Z"
       id="path83" />
    <path
       d="m 89.398998,154.83 v -4.026 h 4.202 v 4.026 z"
       style="fill:#e63027"
       id="path85" />
    <path
       d="m 100.011,160 v -15.136 h 4.862 V 160 Z"
       id="path87" />
    <path
       d="m 111.283,154.83 v -4.026 h 4.202 v 4.026 z"
       style="fill:#e63027"
       id="path89" />
    <path
       d="m 128.033,144.6 q 2.904,0 4.774,1.188 1.87,1.166 1.914,3.476 v 0.264 h -4.554 v -0.088 q 0,-0.66 -0.484,-1.1 -0.484,-0.44 -1.474,-0.44 -0.968,0 -1.496,0.286 -0.506,0.286 -0.506,0.704 0,0.594 0.704,0.88 0.704,0.286 2.266,0.594 1.826,0.374 2.992,0.792 1.188,0.396 2.068,1.32 0.88,0.924 0.902,2.508 0,2.684 -1.826,3.982 -1.804,1.298 -4.84,1.298 -3.542,0 -5.522,-1.188 -1.958,-1.188 -1.958,-4.202 h 4.598 q 0,1.144 0.594,1.54 0.594,0.374 1.848,0.374 0.924,0 1.518,-0.198 0.616,-0.198 0.616,-0.814 0,-0.55 -0.682,-0.814 -0.66,-0.286 -2.178,-0.594 -1.848,-0.396 -3.058,-0.814 -1.21,-0.44 -2.112,-1.43 -0.902,-0.99 -0.902,-2.684 0,-2.486 1.914,-3.652 1.936,-1.188 4.884,-1.188 z"
       id="path91" />
  </g>
  <!-- Red ink drop at top -->
  <g
     fill="#e63027"
     id="g58">
    <path
       id="circle54"
       d="m 161,50 a 6,6 0 0 1 -6,6 6,6 0 0 1 -6,-6 6,6 0 0 1 6,-6 6,6 0 0 1 6,6 z" />
    <path
       id="ellipse56"
       d="M 160.5,65 A 2.5,3.5 0 0 1 158,68.5 2.5,3.5 0 0 1 155.5,65 2.5,3.5 0 0 1 158,61.5 2.5,3.5 0 0 1 160.5,65 Z" />
  </g>
</svg>
