<?xml version="1.0" encoding="UTF-8" standalone="no"?>
<svg
   viewBox="0 0 1200 900"
   role="img"
   aria-label="Metro Ink and Stitch — DFW Custom Apparel"
   version="1.1"
   id="svg174"
   xmlns="http://www.w3.org/2000/svg"
   xmlns:svg="http://www.w3.org/2000/svg">
  <defs
     id="defs22">
    <!-- Halftone dot pattern, fades from sparse top to dense bottom -->
    <radialGradient
       id="halftoneFade"
       cx="50%"
       cy="40%"
       r="80%">
      <stop
         offset="0%"
         stop-color="#ffffff"
         stop-opacity="0"
         id="stop2" />
      <stop
         offset="60%"
         stop-color="#ffffff"
         stop-opacity="0.6"
         id="stop4" />
      <stop
         offset="100%"
         stop-color="#ffffff"
         stop-opacity="1"
         id="stop6" />
    </radialGradient>
    <pattern
       id="halftone"
       x="0"
       y="0"
       width="22"
       height="22"
       patternUnits="userSpaceOnUse">
      <circle
         cx="11"
         cy="11"
         r="2.4"
         fill="#f3ecdb"
         opacity="0.15"
         id="circle9" />
    </pattern>
    <mask
       id="halftoneFadeMask">
      <rect
         x="120"
         y="420"
         width="960"
         height="290"
         fill="url(#halftoneFade)"
         id="rect12" />
    </mask>
    <!-- Subtle grain noise -->
    <filter
       id="grain"
       x="0"
       y="0"
       width="1"
       height="1">
      <feTurbulence
         type="fractalNoise"
         baseFrequency="0.85"
         numOctaves="2"
         seed="7"
         id="feTurbulence15" />
      <feColorMatrix
         values="0 0 0 0 0  0 0 0 0 0  0 0 0 0 0  0 0 0 0.12 0"
         id="feColorMatrix17" />
      <feComposite
         in2="SourceGraphic"
         operator="in"
         id="feComposite19" />
    </filter>
  </defs>
  <!-- ===== BACKGROUND FRAME ===== -->
  <!-- Cream stamp body -->
  <rect
     x="40"
     y="40"
     width="1120"
     height="820"
     rx="20"
     fill="#0d0d0d"
     id="rect24" />
  <!-- Outer heavy frame -->
  <rect
     x="40"
     y="40"
     width="1120"
     height="820"
     rx="20"
     fill="none"
     stroke="#f3ecdb"
     stroke-width="14"
     id="rect26" />
  <!-- Inner thin frame line -->
  <rect
     x="68"
     y="68"
     width="1064"
     height="764"
     rx="10"
     fill="none"
     stroke="#f3ecdb"
     stroke-width="2"
     id="rect28" />
  <!-- Grain overlay on background -->
  <rect
     x="40"
     y="40"
     width="1120"
     height="820"
     rx="20"
     filter="url(#grain)"
     opacity="0.5"
     id="rect30" />
  <!-- ===== TOP CORNER STAMPS ===== -->
  <g
     aria-label="No. 001"
     id="text32"
     style="font-weight:700;font-size:20px;font-family:'JetBrains Mono', 'Courier New', monospace;letter-spacing:3;fill:#e63027">
    <path
       d="m 101.44,115 v -14.6 h 3.06 l 4.06,11.8 q -0.06,-0.64 -0.12,-1.5 -0.06,-0.88 -0.12,-1.78 -0.04,-0.9 -0.04,-1.6 v -6.92 h 2.28 V 115 h -3.06 l -4.02,-11.8 q 0.04,0.58 0.1,1.4 0.06,0.82 0.1,1.68 0.04,0.86 0.04,1.58 V 115 Z"
       id="path178" />
    <path
       d="m 121.00001,115.18 q -2.12,0 -3.36,-1.18 -1.24,-1.2 -1.24,-3.22 v -2.56 q 0,-2.04 1.24,-3.22 1.24,-1.18 3.36,-1.18 2.12,0 3.36,1.18 1.24,1.18 1.24,3.22 v 2.56 q 0,2.02 -1.24,3.22 -1.24,1.18 -3.36,1.18 z m 0,-2.18 q 1,0 1.54,-0.54 0.56,-0.56 0.56,-1.6 v -2.72 q 0,-1.04 -0.56,-1.58 -0.54,-0.56 -1.54,-0.56 -1,0 -1.56,0.56 -0.54,0.54 -0.54,1.58 v 2.72 q 0,1.04 0.54,1.6 0.56,0.54 1.56,0.54 z"
       id="path180" />
    <path
       d="m 136.00002,115.2 q -0.84,0 -1.36,-0.5 -0.5,-0.52 -0.5,-1.34 0,-0.82 0.5,-1.34 0.52,-0.52 1.36,-0.52 0.84,0 1.34,0.52 0.52,0.52 0.52,1.34 0,0.82 -0.52,1.34 -0.5,0.5 -1.34,0.5 z"
       id="path182" />
    <path
       d="m 166.00003,115.2 q -1.42,0 -2.46,-0.54 -1.04,-0.54 -1.62,-1.52 -0.56,-0.98 -0.56,-2.3 v -6.28 q 0,-1.32 0.56,-2.3 0.58,-0.98 1.62,-1.52 1.04,-0.54 2.46,-0.54 1.42,0 2.46,0.54 1.04,0.54 1.6,1.52 0.58,0.98 0.58,2.3 v 6.28 q 0,1.32 -0.58,2.3 -0.56,0.98 -1.6,1.52 -1.04,0.54 -2.46,0.54 z m 0,-2.16 q 1.04,0 1.66,-0.6 0.62,-0.6 0.62,-1.6 v -6.28 q 0,-1 -0.62,-1.6 -0.6,-0.6 -1.66,-0.6 -1.06,0 -1.68,0.6 -0.6,0.6 -0.6,1.6 v 6.28 q 0,1 0.62,1.6 0.62,0.6 1.66,0.6 z m 0,-4.14 q -0.6,0 -0.96,-0.32 -0.36,-0.34 -0.36,-0.94 0,-0.6 0.36,-0.9 0.36,-0.32 0.96,-0.32 0.6,0 0.96,0.32 0.36,0.3 0.36,0.9 0,0.6 -0.36,0.94 -0.36,0.32 -0.96,0.32 z"
       id="path184" />
    <path
       d="m 181.00004,115.2 q -1.42,0 -2.46,-0.54 -1.04,-0.54 -1.62,-1.52 -0.56,-0.98 -0.56,-2.3 v -6.28 q 0,-1.32 0.56,-2.3 0.58,-0.98 1.62,-1.52 1.04,-0.54 2.46,-0.54 1.42,0 2.46,0.54 1.04,0.54 1.6,1.52 0.58,0.98 0.58,2.3 v 6.28 q 0,1.32 -0.58,2.3 -0.56,0.98 -1.6,1.52 -1.04,0.54 -2.46,0.54 z m 0,-2.16 q 1.04,0 1.66,-0.6 0.62,-0.6 0.62,-1.6 v -6.28 q 0,-1 -0.62,-1.6 -0.6,-0.6 -1.66,-0.6 -1.06,0 -1.68,0.6 -0.6,0.6 -0.6,1.6 v 6.28 q 0,1 0.62,1.6 0.62,0.6 1.66,0.6 z m 0,-4.14 q -0.6,0 -0.96,-0.32 -0.36,-0.34 -0.36,-0.94 0,-0.6 0.36,-0.9 0.36,-0.32 0.96,-0.32 0.6,0 0.96,0.32 0.36,0.3 0.36,0.9 0,0.6 -0.36,0.94 -0.36,0.32 -0.96,0.32 z"
       id="path186" />
    <path
       d="m 191.68005,115 v -2.26 h 3.8 v -9.92 l -3.82,2.8 v -2.8 l 3.36,-2.42 h 2.96 v 12.34 h 3.06 V 115 Z"
       id="path188" />
  </g>
  <g
     aria-label="VOL. 26"
     id="text34"
     style="font-weight:700;font-size:20px;font-family:'JetBrains Mono', 'Courier New', monospace;letter-spacing:3;text-anchor:end;fill:#e63027">
    <path
       d="m 1002.3799,115 -3.67995,-14.6 h 2.57995 l 2.22,9.52 q 0.18,0.7 0.32,1.52 0.16,0.8 0.24,1.28 0.08,-0.48 0.22,-1.28 0.16,-0.82 0.34,-1.54 l 2.14,-9.5 h 2.54 l -3.68,14.6 z"
       id="path191" />
    <path
       d="m 1019,115.2 q -2.1,0 -3.34,-1.2 -1.22,-1.2 -1.22,-3.32 v -5.96 q 0,-2.12 1.22,-3.32 1.24,-1.2 3.34,-1.2 2.1,0 3.32,1.2 1.24,1.2 1.24,3.3 v 5.98 q 0,2.12 -1.24,3.32 -1.22,1.2 -3.32,1.2 z m 0,-2.2 q 1.02,0 1.54,-0.54 0.52,-0.56 0.52,-1.58 v -6.36 q 0,-1.02 -0.52,-1.56 -0.52,-0.56 -1.54,-0.56 -1.02,0 -1.54,0.56 -0.52,0.54 -0.52,1.56 v 6.36 q 0,1.02 0.52,1.58 0.52,0.54 1.54,0.54 z"
       id="path193" />
    <path
       d="m 1030.42,115 v -14.6 h 2.5 v 12.34 h 6.2 V 115 Z"
       id="path195" />
    <path
       d="m 1049,115.2 q -0.84,0 -1.36,-0.5 -0.5,-0.52 -0.5,-1.34 0,-0.82 0.5,-1.34 0.52,-0.52 1.36,-0.52 0.84,0 1.34,0.52 0.52,0.52 0.52,1.34 0,0.82 -0.52,1.34 -0.5,0.5 -1.34,0.5 z"
       id="path197" />
    <path
       d="m 1074.48,115 v -2.26 l 5.26,-5.38 q 1.28,-1.34 1.28,-2.72 0,-0.98 -0.58,-1.58 -0.56,-0.62 -1.52,-0.62 -0.98,0 -1.58,0.64 -0.58,0.62 -0.58,1.66 h -2.5 q 0,-1.36 0.6,-2.38 0.6,-1.02 1.66,-1.58 1.06,-0.58 2.46,-0.58 1.38,0 2.42,0.54 1.04,0.54 1.6,1.52 0.58,0.96 0.58,2.26 0,1.12 -0.54,2.24 -0.52,1.12 -1.74,2.32 l -3.68,3.66 h 6.14 V 115 Z"
       id="path199" />
    <path
       d="m 1094,115.2 q -1.5,0 -2.62,-0.6 -1.1,-0.6 -1.72,-1.68 -0.6,-1.1 -0.6,-2.56 0,-0.86 0.36,-1.96 0.38,-1.12 1.02,-2.26 l 3.16,-5.74 h 2.84 l -3.76,6.44 0.08,0.04 q 0.3,-0.42 0.88,-0.66 0.58,-0.24 1.26,-0.24 1.22,0 2.12,0.56 0.92,0.54 1.42,1.54 0.5,1 0.5,2.36 0,1.44 -0.62,2.52 -0.6,1.06 -1.72,1.66 -1.1,0.58 -2.6,0.58 z m 0,-2.12 q 1.12,0 1.8,-0.7 0.68,-0.72 0.68,-1.9 0,-1.2 -0.68,-1.9 -0.68,-0.72 -1.8,-0.72 -1.12,0 -1.8,0.72 -0.68,0.7 -0.68,1.9 0,1.18 0.68,1.9 0.68,0.7 1.8,0.7 z"
       id="path201" />
  </g>
  <!-- ===== TOP LABEL: divider lines + text — sits BELOW skyline ===== -->
  <g
     transform="translate(600,380)"
     id="g42">
    <path
       id="line36"
       style="stroke:#e63027;stroke-width:3;stroke-linecap:round"
       d="m -440,0 h 110" />
    <g
       aria-label="EST · DFW · CUSTOM APPAREL CO."
       id="text38"
       style="font-weight:700;font-size:22px;font-family:'JetBrains Mono', 'Courier New', monospace;letter-spacing:6;text-anchor:middle;fill:#e63027">
      <path
         d="m -283.06413,6 v -16.06 h 9.636 v 2.42 h -6.93 v 4.18 h 6.16 v 2.332 h -6.16 V 3.58 h 6.93 V 6 Z"
         id="path205" />
      <path
         d="m -259.13412,6.22 q -1.628,0 -2.86,-0.572 -1.21,-0.572 -1.892,-1.628 -0.66,-1.078 -0.66,-2.552 h 2.706 q 0,1.078 0.726,1.716 0.748,0.638 1.98,0.638 1.188,0 1.87,-0.616 0.704,-0.638 0.704,-1.694 0,-0.792 -0.462,-1.386 -0.44,-0.616 -1.276,-0.836 l -2.156,-0.55 q -1.738,-0.44 -2.75,-1.65 -1.012,-1.21 -1.012,-2.882 0,-2.046 1.342,-3.256 1.342,-1.232 3.586,-1.232 1.518,0 2.64,0.55 1.144,0.55 1.76,1.562 0.616,0.99 0.616,2.332 h -2.684 q 0,-0.924 -0.638,-1.496 -0.638,-0.572 -1.694,-0.572 -1.034,0 -1.65,0.572 -0.594,0.55 -0.594,1.452 0,0.748 0.418,1.232 0.44,0.484 1.21,0.704 l 2.222,0.55 q 1.782,0.44 2.794,1.76 1.034,1.32 1.034,3.146 0,1.43 -0.66,2.486 -0.638,1.056 -1.826,1.65 -1.188,0.572 -2.794,0.572 z"
         id="path207" />
      <path
         d="M -241.38611,6 V -7.574 h -4.202 v -2.486 h 11.176 v 2.486 h -4.202 V 6 Z"
         id="path209" />
      <path
         d="m -201.60009,0.39 q -0.924,0 -1.496,-0.55 -0.55,-0.572 -0.55,-1.474 0,-0.902 0.55,-1.474 0.572,-0.572 1.496,-0.572 0.924,0 1.474,0.572 0.572,0.572 0.572,1.474 0,0.902 -0.572,1.474 -0.55,0.55 -1.474,0.55 z"
         id="path211" />
      <path
         d="m -168.15008,6 v -16.06 h 4.774 q 1.628,0 2.816,0.638 1.21,0.616 1.87,1.738 0.66,1.122 0.66,2.64 v 6.006 q 0,1.518 -0.66,2.662 -0.66,1.122 -1.87,1.76 -1.188,0.616 -2.816,0.616 z m 2.75,-2.464 h 2.024 q 1.188,0 1.892,-0.682 0.704,-0.704 0.704,-1.892 v -6.006 q 0,-1.166 -0.704,-1.848 -0.704,-0.704 -1.892,-0.704 h -2.024 z"
         id="path213" />
      <path
         d="m -148.84007,6 v -16.06 h 9.988 v 2.552 h -7.282 v 4.29 h 6.71 v 2.552 h -6.666 V 6 Z"
         id="path215" />
      <path
         d="m -129.42006,6 -1.672,-16.06 h 2.288 l 1.012,11.22 q 0.044,0.572 0.088,1.474 0.066,0.88 0.066,1.496 0.066,-0.616 0.132,-1.496 0.088,-0.902 0.154,-1.474 l 1.408,-11.22 h 2.354 l 1.32,11.22 q 0.066,0.572 0.154,1.474 0.11,0.88 0.176,1.496 0.022,-0.616 0.066,-1.496 0.066,-0.902 0.11,-1.474 l 0.99,-11.22 h 2.266 l -1.76,16.06 h -3.036 l -1.232,-11.264 q -0.066,-0.638 -0.132,-1.54 -0.066,-0.924 -0.11,-1.518 -0.044,0.594 -0.11,1.518 -0.066,0.902 -0.132,1.54 L -126.36206,6 Z"
         id="path217" />
      <path
         d="m -86.400034,0.39 q -0.924,0 -1.496,-0.55 -0.55,-0.572 -0.55,-1.474 0,-0.902 0.55,-1.474 0.572,-0.572 1.496,-0.572 0.924,0 1.474,0.572 0.572,0.572 0.572,1.474 0,0.902 -0.572,1.474 -0.55,0.55 -1.474,0.55 z"
         id="path219" />
      <path
         d="m -47.824025,6.22 q -1.562,0 -2.706,-0.572 -1.144,-0.594 -1.782,-1.65 -0.616,-1.078 -0.616,-2.53 v -6.996 q 0,-1.452 0.616,-2.508 0.638,-1.078 1.782,-1.65 1.144,-0.594 2.706,-0.594 1.54,0 2.684,0.594 1.144,0.572 1.782,1.65 0.638,1.056 0.638,2.508 h -2.772 q 0,-1.122 -0.616,-1.716 -0.594,-0.616 -1.716,-0.616 -1.122,0 -1.738,0.616 -0.616,0.594 -0.616,1.716 v 6.996 q 0,1.122 0.616,1.738 0.616,0.594 1.738,0.594 1.122,0 1.716,-0.594 0.616,-0.616 0.616,-1.738 h 2.772 q 0,1.452 -0.638,2.53 -0.638,1.056 -1.782,1.65 -1.144,0.572 -2.684,0.572 z"
         id="path221" />
      <path
         d="m -28.800013,6.22 q -2.354,0 -3.696,-1.276 -1.32,-1.298 -1.32,-3.52 V -10.06 h 2.772 V 1.402 q 0,1.144 0.572,1.782 0.572,0.638 1.672,0.638 1.078,0 1.65,-0.638 0.594,-0.638 0.594,-1.782 V -10.06 h 2.772 V 1.424 q 0,2.222 -1.32,3.52 -1.32,1.276 -3.696,1.276 z"
         id="path223" />
      <path
         d="m -9.534016,6.22 q -1.628,0 -2.86,-0.572 -1.21,-0.572 -1.892,-1.628 -0.66,-1.078 -0.66,-2.552 h 2.706 q 0,1.078 0.726,1.716 0.748,0.638 1.98,0.638 1.188,0 1.87,-0.616 0.704,-0.638 0.704,-1.694 0,-0.792 -0.462,-1.386 -0.44,-0.616 -1.276,-0.836 l -2.156,-0.55 q -1.738,-0.44 -2.75,-1.65 -1.012,-1.21 -1.012,-2.882 0,-2.046 1.342,-3.256 1.342,-1.232 3.586,-1.232 1.518,0 2.64,0.55 1.144,0.55 1.76,1.562 0.616,0.99 0.616,2.332 h -2.684 q 0,-0.924 -0.638,-1.496 -0.638,-0.572 -1.694,-0.572 -1.034,0 -1.65,0.572 -0.594,0.55 -0.594,1.452 0,0.748 0.418,1.232 0.44,0.484 1.21,0.704 l 2.222,0.55 q 1.782,0.44 2.794,1.76 1.034,1.32 1.034,3.146 0,1.43 -0.66,2.486 -0.638,1.056 -1.826,1.65 -1.188,0.572 -2.794,0.572 z"
         id="path225" />
      <path
         d="M 8.2139962,6 V -7.574 h -4.202 V -10.06 H 15.187996 v 2.486 h -4.202 V 6 Z"
         id="path227" />
      <path
         d="m 28.800008,6.22 q -2.31,0 -3.674,-1.32 -1.342,-1.32 -1.342,-3.652 v -6.556 q 0,-2.332 1.342,-3.652 1.364,-1.32 3.674,-1.32 2.31,0 3.652,1.32 1.364,1.32 1.364,3.63 v 6.578 q 0,2.332 -1.364,3.652 -1.342,1.32 -3.652,1.32 z m 0,-2.42 q 1.122,0 1.694,-0.594 0.572,-0.616 0.572,-1.738 v -6.996 q 0,-1.122 -0.572,-1.716 -0.572,-0.616 -1.694,-0.616 -1.122,0 -1.694,0.616 -0.572,0.594 -0.572,1.716 v 6.996 q 0,1.122 0.572,1.738 0.572,0.594 1.694,0.594 z"
         id="path229" />
      <path
         d="m 42.588021,6 v -16.06 h 3.586 l 1.804,6.908 1.826,-6.908 h 3.608 V 6 h -2.574 v -6.754 q 0,-1.386 0.066,-2.86 0.088,-1.496 0.198,-2.882 0.11,-1.408 0.242,-2.552 l -2.266,8.074 h -2.266 l -2.178,-7.876 q 0.198,1.518 0.352,3.63 0.176,2.09 0.176,4.466 V 6 Z"
         id="path231" />
      <path
         d="m 80.570045,6 4.048,-16.06 h 3.542 l 4.07,16.06 h -2.816 l -0.88,-3.894 h -4.268 l -0.88,3.894 z m 4.202,-6.138 h 3.256 l -0.968,-4.312 q -0.242,-1.078 -0.418,-1.936 -0.176,-0.88 -0.242,-1.276 -0.066,0.396 -0.242,1.276 -0.176,0.858 -0.418,1.914 z"
         id="path233" />
      <path
         d="m 100.69406,6 v -16.06 h 5.346 q 1.606,0 2.794,0.616 1.21,0.616 1.87,1.738 0.66,1.1 0.66,2.596 0,1.496 -0.66,2.618 -0.66,1.1 -1.87,1.716 -1.188,0.616 -2.794,0.616 h -2.596 V 6 Z m 2.75,-8.58 h 2.596 q 1.166,0 1.848,-0.704 0.682,-0.704 0.682,-1.826 0,-1.122 -0.682,-1.826 -0.682,-0.704 -1.848,-0.704 h -2.596 z"
         id="path235" />
      <path
         d="m 119.89404,6 v -16.06 h 5.346 q 1.606,0 2.794,0.616 1.21,0.616 1.87,1.738 0.66,1.1 0.66,2.596 0,1.496 -0.66,2.618 -0.66,1.1 -1.87,1.716 -1.188,0.616 -2.794,0.616 h -2.596 V 6 Z m 2.75,-8.58 h 2.596 q 1.166,0 1.848,-0.704 0.682,-0.704 0.682,-1.826 0,-1.122 -0.682,-1.826 -0.682,-0.704 -1.848,-0.704 h -2.596 z"
         id="path237" />
      <path
         d="m 138.17005,6 4.048,-16.06 h 3.542 l 4.07,16.06 h -2.816 l -0.88,-3.894 h -4.268 l -0.88,3.894 z m 4.202,-6.138 h 3.256 l -0.968,-4.312 q -0.242,-1.078 -0.418,-1.936 -0.176,-0.88 -0.242,-1.276 -0.066,0.396 -0.242,1.276 -0.176,0.858 -0.418,1.914 z"
         id="path239" />
      <path
         d="m 158.29406,6 v -16.06 h 5.06 q 1.606,0 2.772,0.594 1.188,0.594 1.848,1.672 0.66,1.056 0.66,2.508 0,1.606 -0.792,2.816 -0.792,1.188 -2.134,1.694 l 3.146,6.776 h -3.014 l -2.816,-6.38 h -2.002 V 6 Z m 2.728,-8.8 h 2.332 q 1.166,0 1.826,-0.638 0.66,-0.638 0.66,-1.76 0,-1.122 -0.682,-1.782 -0.66,-0.66 -1.804,-0.66 h -2.332 z"
         id="path241" />
      <path
         d="m 177.73608,6 v -16.06 h 9.636 v 2.42 h -6.93 v 4.18 h 6.16 v 2.332 h -6.16 V 3.58 h 6.93 V 6 Z"
         id="path243" />
      <path
         d="m 197.66209,6 v -16.06 h 2.75 V 3.514 h 6.82 V 6 Z"
         id="path245" />
      <path
         d="m 240.17608,6.22 q -1.562,0 -2.706,-0.572 -1.144,-0.594 -1.782,-1.65 -0.616,-1.078 -0.616,-2.53 v -6.996 q 0,-1.452 0.616,-2.508 0.638,-1.078 1.782,-1.65 1.144,-0.594 2.706,-0.594 1.54,0 2.684,0.594 1.144,0.572 1.782,1.65 0.638,1.056 0.638,2.508 h -2.772 q 0,-1.122 -0.616,-1.716 -0.594,-0.616 -1.716,-0.616 -1.122,0 -1.738,0.616 -0.616,0.594 -0.616,1.716 v 6.996 q 0,1.122 0.616,1.738 0.616,0.594 1.738,0.594 1.122,0 1.716,-0.594 0.616,-0.616 0.616,-1.738 h 2.772 q 0,1.452 -0.638,2.53 -0.638,1.056 -1.782,1.65 -1.144,0.572 -2.684,0.572 z"
         id="path247" />
      <path
         d="m 259.20009,6.22 q -2.31,0 -3.674,-1.32 -1.342,-1.32 -1.342,-3.652 v -6.556 q 0,-2.332 1.342,-3.652 1.364,-1.32 3.674,-1.32 2.31,0 3.652,1.32 1.364,1.32 1.364,3.63 v 6.578 q 0,2.332 -1.364,3.652 -1.342,1.32 -3.652,1.32 z m 0,-2.42 q 1.122,0 1.694,-0.594 0.572,-0.616 0.572,-1.738 v -6.996 q 0,-1.122 -0.572,-1.716 -0.572,-0.616 -1.694,-0.616 -1.122,0 -1.694,0.616 -0.572,0.594 -0.572,1.716 v 6.996 q 0,1.122 0.572,1.738 0.572,0.594 1.694,0.594 z"
         id="path249" />
      <path
         d="m 278.40011,6.22 q -0.924,0 -1.496,-0.55 -0.55,-0.572 -0.55,-1.474 0,-0.902 0.55,-1.474 0.572,-0.572 1.496,-0.572 0.924,0 1.474,0.572 0.572,0.572 0.572,1.474 0,0.902 -0.572,1.474 -0.55,0.55 -1.474,0.55 z"
         id="path251" />
    </g>
    <path
       id="line40"
       style="stroke:#e63027;stroke-width:3;stroke-linecap:round"
       d="M 330,0 H 440" />
  </g>
  <!-- ===== DALLAS SKYLINE ===== -->
  <g
     transform="translate(600,305)"
     stroke="#f3ecdb"
     fill="#f3ecdb"
     stroke-linejoin="miter"
     id="g148">
    <!-- Baseline (the ground) -->
    <path
       id="line44"
       style="fill:none;stroke-width:3"
       d="M -440,0 H 440" />
    <!-- Far left: low blocks -->
    <path
       id="rect46"
       d="m -430,-22 h 36 V 0 h -36 z" />
    <path
       id="rect48"
       d="m -388,-40 h 32 V 0 h -32 z" />
    <!-- REUNION TOWER (Dallas signature: ball on stick) -->
    <g
       transform="translate(-310)"
       id="g62">
      <!-- mast -->
      <path
         id="rect50"
         d="M -3,-110 H 3 V 0 h -6 z" />
      <!-- ball (sphere) -->
      <path
         id="circle52"
         d="m 22,-128 a 22,22 0 0 1 -22,22 22,22 0 0 1 -22,-22 22,22 0 0 1 22,-22 22,22 0 0 1 22,22 z" />
      <!-- horizontal stripes on ball (signature lights) -->
      <path
         id="line54"
         style="stroke:#0d0d0d;stroke-width:2.5"
         d="M -19,-134 H 19" />
      <path
         id="line56"
         style="stroke:#0d0d0d;stroke-width:2.5"
         d="M -21,-128 H 21" />
      <path
         id="line58"
         style="stroke:#0d0d0d;stroke-width:2.5"
         d="M -19,-122 H 19" />
      <!-- antenna spike -->
      <path
         id="line60"
         style="stroke-width:2.5"
         d="m 0,-150 v -18" />
    </g>
    <!-- Building between Reunion and BoA -->
    <path
       id="rect64"
       d="m -260,-65 h 40 V 0 h -40 z" />
    <path
       id="line66"
       style="stroke:#0d0d0d"
       d="M -250,-60 V -5" />
    <path
       id="line68"
       style="stroke:#0d0d0d"
       d="M -240,-60 V -5" />
    <path
       id="line70"
       style="stroke:#0d0d0d"
       d="M -230,-60 V -5" />
    <!-- BANK OF AMERICA PLAZA (Dallas signature: tall green-lit tower) -->
    <g
       transform="translate(-180)"
       id="g88">
      <path
         id="rect72"
         d="M -30,-180 H 30 V 0 h -60 z" />
      <!-- crown detail -->
      <path
         id="rect74"
         d="m -30,-185 h 60 v 8 h -60 z" />
      <path
         id="rect76"
         d="m -2,-205 h 4 v 20 h -4 z" />
      <!-- vertical light lines (signature green stripes, here as cream lines) -->
      <path
         id="line78"
         style="stroke:#0d0d0d;stroke-width:1.5"
         d="M -20,-175 V -10" />
      <path
         id="line80"
         style="stroke:#0d0d0d;stroke-width:1.5"
         d="M -10,-175 V -10" />
      <path
         id="line82"
         style="stroke:#0d0d0d;stroke-width:1.5"
         d="M 0,-175 V -10" />
      <path
         id="line84"
         style="stroke:#0d0d0d;stroke-width:1.5"
         d="M 10,-175 V -10" />
      <path
         id="line86"
         style="stroke:#0d0d0d;stroke-width:1.5"
         d="M 20,-175 V -10" />
    </g>
    <!-- Renaissance Tower (twin antennas) -->
    <g
       transform="translate(-95)"
       id="g102">
      <path
         id="rect90"
         d="M -25,-150 H 25 V 0 h -50 z" />
      <!-- twin spires -->
      <path
         id="line92"
         style="stroke-width:3"
         d="m -12,-175 v 25" />
      <path
         id="line94"
         style="stroke-width:3"
         d="m 12,-175 v 25" />
      <!-- window grid suggestion -->
      <path
         id="line96"
         style="stroke:#0d0d0d"
         d="M -15,-145 V -10" />
      <path
         id="line98"
         style="stroke:#0d0d0d"
         d="M 0,-145 V -10" />
      <path
         id="line100"
         style="stroke:#0d0d0d"
         d="M 15,-145 V -10" />
    </g>
    <!-- COMERICA BANK TOWER (Dallas signature: pyramidal cap) -->
    <g
       id="g116">
      <path
         id="rect104"
         d="M -32,-130 H 32 V 0 h -64 z" />
      <!-- pyramidal/triangular cap -->
      <path
         id="polygon106"
         d="M -32,-130 H 32 L 0,-178 Z" />
      <path
         id="line108"
         style="stroke:#0d0d0d;stroke-width:1.5"
         d="M -22,-125 V -10" />
      <path
         id="line110"
         style="stroke:#0d0d0d;stroke-width:1.5"
         d="M -7,-125 V -10" />
      <path
         id="line112"
         style="stroke:#0d0d0d;stroke-width:1.5"
         d="M 7,-125 V -10" />
      <path
         id="line114"
         style="stroke:#0d0d0d;stroke-width:1.5"
         d="M 22,-125 V -10" />
    </g>
    <!-- Trammell Crow Center / generic mid -->
    <path
       id="rect118"
       d="m 65,-115 h 55 V 0 H 65 Z" />
    <path
       id="line120"
       style="stroke:#0d0d0d"
       d="M 78,-110 V -10" />
    <path
       id="line122"
       style="stroke:#0d0d0d"
       d="M 93,-110 V -10" />
    <path
       id="line124"
       style="stroke:#0d0d0d"
       d="M 108,-110 V -10" />
    <!-- Fountain Place (angled facets) -->
    <g
       transform="translate(165)"
       id="g134">
      <path
         id="polygon126"
         d="m 10,-140 20,40 V 0 h -60 v -100 l 20,-40 z" />
      <path
         id="line128"
         style="stroke:#0d0d0d"
         d="m -15,-100 v 90" />
      <path
         id="line130"
         style="stroke:#0d0d0d"
         d="M 0,-130 V -10" />
      <path
         id="line132"
         style="stroke:#0d0d0d"
         d="m 15,-100 v 90" />
    </g>
    <!-- right side: stepped buildings -->
    <path
       id="rect136"
       d="m 220,-70 h 45 V 0 h -45 z" />
    <path
       id="rect138"
       d="m 275,-90 h 50 V 0 h -50 z" />
    <path
       id="line140"
       style="stroke:#0d0d0d"
       d="m 290,-85 v 75" />
    <path
       id="line142"
       style="stroke:#0d0d0d"
       d="m 305,-85 v 75" />
    <!-- far right: low stepped -->
    <path
       id="polygon144"
       d="m 360,-50 v -15 h 35 V 0 h -55 v -50 z" />
    <path
       id="rect146"
       d="m 408,-30 h 22 V 0 h -22 z" />
  </g>
  <!-- ===== HALFTONE FADE BEHIND WORDMARK ===== -->
  <rect
     x="120"
     y="420"
     width="960"
     height="290"
     fill="url(#halftone)"
     opacity="0.4"
     mask="url(#halftoneFadeMask)"
     id="rect150" />
  <!-- ===== MAIN WORDMARK — STACKED ===== -->
  <!-- METRO -->
  <g
     aria-label="METRO"
     id="text152"
     style="font-weight:900;font-size:135px;font-family:'Archivo Black', 'Helvetica Neue', Impact, sans-serif;letter-spacing:-3;text-anchor:middle;fill:#f3ecdb">
    <path
       d="m 426.98998,510 v -33.48 q 0,-6.21 0.405,-12.69 0.54,-6.615 1.08,-11.07 0.54,-4.455 0.675,-5.67 h -0.54 l -17.145,62.91 h -23.355 l -17.28,-62.775 h -0.54 q 0.135,1.215 0.675,5.67 0.675,4.32 1.215,10.935 0.54,6.48 0.54,12.69 V 510 h -27.405 v -92.88 h 42.12 l 14.04,53.595 h 0.54 l 13.905,-53.595 h 40.635 V 510 Z"
       id="path302" />
    <path
       d="m 471.64501,417.12 h 80.325 v 22.275 h -50.49 v 12.825 h 43.2 v 21.33 h -43.2 v 14.175 h 51.435 V 510 h -81.27 z"
       id="path304" />
    <path
       d="M 619.57503,440.88 V 510 h -29.835 v -69.12 h -30.51 v -23.76 h 90.72 v 23.76 z"
       id="path306" />
    <path
       d="m 748.74004,445.605 q 0,8.505 -4.59,15.39 -4.59,6.885 -13.365,10.125 l 20.655,38.88 h -33.48 l -16.47,-33.885 h -11.07 V 510 h -29.835 v -92.88 h 56.835 q 9.99,0 17.01,3.915 7.155,3.78 10.665,10.395 3.645,6.48 3.645,14.175 z m -30.375,1.215 q 0,-3.645 -2.43,-6.075 -2.43,-2.43 -5.94,-2.43 h -19.575 v 17.145 h 19.575 q 3.51,0 5.94,-2.43 2.43,-2.565 2.43,-6.21 z"
       id="path308" />
    <path
       d="m 806.49,415.5 q 24.03,0 37.125,12.285 13.095,12.285 13.095,35.775 0,23.49 -13.095,35.775 -13.095,12.285 -37.125,12.285 -24.03,0 -37.125,-12.15 -12.96,-12.285 -12.96,-35.91 0,-23.625 12.96,-35.775 Q 782.46,415.5 806.49,415.5 Z m 0,22.275 q -9.585,0 -14.58,5.805 -4.995,5.805 -4.995,15.66 v 8.64 q 0,9.855 4.995,15.66 4.995,5.805 14.58,5.805 9.585,0 14.58,-5.805 5.13,-5.805 5.13,-15.66 v -8.64 q 0,-9.855 -5.13,-15.66 -4.995,-5.805 -14.58,-5.805 z"
       id="path310" />
  </g>
  <!-- INK & — red, single line, italic ampersand -->
  <g
     aria-label="INK &amp;"
     id="text156"
     style="font-weight:900;font-size:100px;font-family:'Archivo Black', 'Helvetica Neue', Impact, sans-serif;letter-spacing:-2;text-anchor:middle;fill:#e63027">
    <path
       d="m 448.54998,615 v -68.8 h 22.1 V 615 Z"
       id="path313" />
    <path
       d="m 533.64997,615 -28.9,-33.4 V 615 h -20.3 v -68.8 h 19.3 l 28.9,33.9 v -33.9 h 20.3 V 615 Z"
       id="path315" />
    <path
       d="m 612.34999,546.2 h 27.4 l -24.7,28.3 25.2,40.5 h -26.1 l -14.3,-25.2 -12,9.8 V 615 h -22.1 v -68.8 h 22.1 v 29.4 z"
       id="path317" />
    <path
       d="m 712.65003,545 q 10.2,0 17.7,2.5 7.5,2.5 11.5,6.8 4,4.3 4,9.5 v 2.5 h -17.7 q 0,-3.1 -3.7,-5.1 -3.6,-2.1 -10.5,-2.1 -6.4,0 -9.8,2.5 -3.3,2.4 -3.3,5.9 0,3.1 2,4.7 2.1,1.6 5.1,1.6 h 10.4 v 12.3 h -12.6 q -3.1,0 -5.1,1.9 -1.9,1.8 -1.9,5.3 0,4.1 3.4,6.5 3.5,2.3 11,2.3 15,0 15,-8.9 v -19.4 h 31.6 v 12.3 h -13.7 v 6.7 q 0,11.2 -8,17.3 -7.9,6.1 -24.8,6.1 -17.4,0 -26.1,-5.6 -8.7,-5.6 -8.7,-14.8 0,-6 3.1,-10.3 3.2,-4.4 8.9,-6.2 v -0.4 q -4.3,-1.6 -7.2,-5.5 -2.8,-3.9 -2.8,-8.7 0,-5.4 3.6,-9.9 3.7,-4.5 11,-7.1 7.3,-2.7 17.6,-2.7 z"
       style="font-style:italic"
       id="path319" />
  </g>
  <!-- STITCH -->
  <g
     aria-label="STITCH"
     id="text158"
     style="font-weight:900;font-size:120px;font-family:'Archivo Black', 'Helvetica Neue', Impact, sans-serif;letter-spacing:-3;text-anchor:middle;fill:#f3ecdb">
    <path
       d="m 403.14,641 q 15.84,0 26.04,6.48 10.2,6.36 10.44,18.96 v 1.44 h -24.84 v -0.48 q 0,-3.6 -2.64,-6 -2.64,-2.4 -8.04,-2.4 -5.28,0 -8.16,1.56 -2.76,1.56 -2.76,3.84 0,3.24 3.84,4.8 3.84,1.56 12.36,3.24 9.96,2.04 16.32,4.32 6.48,2.16 11.28,7.2 4.8,5.04 4.92,13.68 0,14.64 -9.96,21.72 -9.84,7.08 -26.4,7.08 -19.32,0 -30.12,-6.48 -10.68,-6.48 -10.68,-22.92 h 25.08 q 0,6.24 3.24,8.4 3.24,2.04 10.08,2.04 5.04,0 8.28,-1.08 3.36,-1.08 3.36,-4.44 0,-3 -3.72,-4.44 -3.6,-1.56 -11.88,-3.24 -10.08,-2.16 -16.68,-4.44 -6.6,-2.4 -11.52,-7.8 -4.92,-5.4 -4.92,-14.64 0,-13.56 10.44,-19.92 10.56,-6.48 26.64,-6.48 z"
       id="path322" />
    <path
       d="M 499.62002,663.56 V 725 h -26.52 v -61.44 h -27.12 v -21.12 h 80.64 v 21.12 z"
       id="path324" />
    <path
       d="m 536.94003,725 v -82.56 h 26.52 V 725 Z"
       id="path326" />
    <path
       d="M 626.94002,663.56 V 725 h -26.52 v -61.44 h -27.12 v -21.12 h 80.64 v 21.12 z"
       id="path328" />
    <path
       d="m 698.33999,641 q 18.36,0 29.04,9.24 10.68,9.12 10.68,26.16 h -25.32 q 0,-7.2 -3.84,-11.4 -3.72,-4.2 -10.68,-4.2 -8.04,0 -11.88,5.04 -3.72,5.04 -3.72,14.04 v 7.68 q 0,8.88 3.72,14.04 3.84,5.04 11.64,5.04 7.68,0 11.64,-3.96 3.96,-3.96 3.96,-11.16 h 24.48 q 0,16.92 -10.44,25.92 -10.32,9 -29.28,9 -21.12,0 -32.04,-10.8 -10.8,-10.8 -10.8,-31.92 0,-21.12 10.8,-31.92 10.92,-10.8 32.04,-10.8 z"
       id="path330" />
    <path
       d="m 805.01998,725 v -31.32 h -29.16 V 725 h -26.52 v -82.56 h 26.52 v 30.12 h 29.16 v -30.12 h 26.52 V 725 Z"
       id="path332" />
  </g>
  <!-- ===== INK DRIP — bottom right, inside frame ===== -->
  <g
     fill="#e63027"
     id="g168">
    <!-- main drip -->
    <path
       d="m 985,745 v 33 q 0,13 6,16 6,3 9,-4 2,-6 3,-12 1,-6 4,-9 v -24 z"
       id="path160" />
    <!-- droplet falling -->
    <path
       id="ellipse162"
       d="m 1002,810 a 7,9 0 0 1 -7,9 7,9 0 0 1 -7,-9 7,9 0 0 1 7,-9 7,9 0 0 1 7,9 z" />
    <!-- second smaller drip -->
    <path
       d="m 945,745 v 17 q 0,7 4,8 4,1 6,-4 v -21 z"
       id="path164" />
    <!-- splat dot -->
    <path
       id="circle166"
       d="m 963,828 a 3,3 0 0 1 -3,3 3,3 0 0 1 -3,-3 3,3 0 0 1 3,-3 3,3 0 0 1 3,3 z" />
  </g>
  <!-- ===== BOTTOM TAGLINE — mustard underline + mono caps ===== -->
  <line
     x1="200"
     y1="780"
     x2="1000"
     y2="780"
     stroke="#e8b923"
     stroke-width="6"
     stroke-linecap="round"
     id="line170" />
  <g
     aria-label="SCREEN PRINT · DTG · EMBROIDERY"
     id="text172"
     style="font-weight:700;font-size:22px;font-family:'JetBrains Mono', 'Courier New', monospace;letter-spacing:6;text-anchor:middle;fill:#f3ecdb">
    <path
       d="m 312.06587,822.22 q -1.628,0 -2.86,-0.572 -1.21,-0.572 -1.892,-1.628 -0.66,-1.078 -0.66,-2.552 h 2.706 q 0,1.078 0.726,1.716 0.748,0.638 1.98,0.638 1.188,0 1.87,-0.616 0.704,-0.638 0.704,-1.694 0,-0.792 -0.462,-1.386 -0.44,-0.616 -1.276,-0.836 l -2.156,-0.55 q -1.738,-0.44 -2.75,-1.65 -1.012,-1.21 -1.012,-2.882 0,-2.046 1.342,-3.256 1.342,-1.232 3.586,-1.232 1.518,0 2.64,0.55 1.144,0.55 1.76,1.562 0.616,0.99 0.616,2.332 h -2.684 q 0,-0.924 -0.638,-1.496 -0.638,-0.572 -1.694,-0.572 -1.034,0 -1.65,0.572 -0.594,0.55 -0.594,1.452 0,0.748 0.418,1.232 0.44,0.484 1.21,0.704 l 2.222,0.55 q 1.782,0.44 2.794,1.76 1.034,1.32 1.034,3.146 0,1.43 -0.66,2.486 -0.638,1.056 -1.826,1.65 -1.188,0.572 -2.794,0.572 z"
       id="path337" />
    <path
       d="m 331.37588,822.22 q -1.562,0 -2.706,-0.572 -1.144,-0.594 -1.782,-1.65 -0.616,-1.078 -0.616,-2.53 v -6.996 q 0,-1.452 0.616,-2.508 0.638,-1.078 1.782,-1.65 1.144,-0.594 2.706,-0.594 1.54,0 2.684,0.594 1.144,0.572 1.782,1.65 0.638,1.056 0.638,2.508 h -2.772 q 0,-1.122 -0.616,-1.716 -0.594,-0.616 -1.716,-0.616 -1.122,0 -1.738,0.616 -0.616,0.594 -0.616,1.716 v 6.996 q 0,1.122 0.616,1.738 0.616,0.594 1.738,0.594 1.122,0 1.716,-0.594 0.616,-0.616 0.616,-1.738 h 2.772 q 0,1.452 -0.638,2.53 -0.638,1.056 -1.782,1.65 -1.144,0.572 -2.684,0.572 z"
       id="path339" />
    <path
       d="m 345.49389,822 v -16.06 h 5.06 q 1.606,0 2.772,0.594 1.188,0.594 1.848,1.672 0.66,1.056 0.66,2.508 0,1.606 -0.792,2.816 -0.792,1.188 -2.134,1.694 l 3.146,6.776 h -3.014 l -2.816,-6.38 h -2.002 V 822 Z m 2.728,-8.8 h 2.332 q 1.166,0 1.826,-0.638 0.66,-0.638 0.66,-1.76 0,-1.122 -0.682,-1.782 -0.66,-0.66 -1.804,-0.66 h -2.332 z"
       id="path341" />
    <path
       d="m 364.9359,822 v -16.06 h 9.636 v 2.42 h -6.93 v 4.18 h 6.16 v 2.332 h -6.16 v 4.708 h 6.93 V 822 Z"
       id="path343" />
    <path
       d="m 384.1359,822 v -16.06 h 9.636 v 2.42 h -6.93 v 4.18 h 6.16 v 2.332 h -6.16 v 4.708 h 6.93 V 822 Z"
       id="path345" />
    <path
       d="m 402.98392,822 v -16.06 h 3.366 l 4.466,12.98 q -0.066,-0.704 -0.132,-1.65 -0.066,-0.968 -0.132,-1.958 -0.044,-0.99 -0.044,-1.76 v -7.612 h 2.508 V 822 h -3.366 l -4.422,-12.98 q 0.044,0.638 0.11,1.54 0.066,0.902 0.11,1.848 0.044,0.946 0.044,1.738 V 822 Z"
       id="path347" />
    <path
       d="m 441.49392,822 v -16.06 h 5.346 q 1.606,0 2.794,0.616 1.21,0.616 1.87,1.738 0.66,1.1 0.66,2.596 0,1.496 -0.66,2.618 -0.66,1.1 -1.87,1.716 -1.188,0.616 -2.794,0.616 h -2.596 V 822 Z m 2.75,-8.58 h 2.596 q 1.166,0 1.848,-0.704 0.682,-0.704 0.682,-1.826 0,-1.122 -0.682,-1.826 -0.682,-0.704 -1.848,-0.704 h -2.596 z"
       id="path349" />
    <path
       d="m 460.69394,822 v -16.06 h 5.06 q 1.606,0 2.772,0.594 1.188,0.594 1.848,1.672 0.66,1.056 0.66,2.508 0,1.606 -0.792,2.816 -0.792,1.188 -2.134,1.694 l 3.146,6.776 h -3.014 l -2.816,-6.38 h -2.002 V 822 Z m 2.728,-8.8 h 2.332 q 1.166,0 1.826,-0.638 0.66,-0.638 0.66,-1.76 0,-1.122 -0.682,-1.782 -0.66,-0.66 -1.804,-0.66 h -2.332 z"
       id="path351" />
    <path
       d="m 480.17995,822 v -2.486 h 3.234 v -11.088 h -3.234 v -2.486 h 9.24 v 2.486 h -3.234 v 11.088 h 3.234 V 822 Z"
       id="path353" />
    <path
       d="m 498.98396,822 v -16.06 h 3.366 l 4.466,12.98 q -0.066,-0.704 -0.132,-1.65 -0.066,-0.968 -0.132,-1.958 -0.044,-0.99 -0.044,-1.76 v -7.612 h 2.508 V 822 h -3.366 l -4.422,-12.98 q 0.044,0.638 0.11,1.54 0.066,0.902 0.11,1.848 0.044,0.946 0.044,1.738 V 822 Z"
       id="path355" />
    <path
       d="m 521.81396,822 v -13.574 h -4.202 v -2.486 h 11.176 v 2.486 h -4.202 V 822 Z"
       id="path357" />
    <path
       d="m 561.59998,816.39 q -0.924,0 -1.496,-0.55 -0.55,-0.572 -0.55,-1.474 0,-0.902 0.55,-1.474 0.572,-0.572 1.496,-0.572 0.924,0 1.474,0.572 0.572,0.572 0.572,1.474 0,0.902 -0.572,1.474 -0.55,0.55 -1.474,0.55 z"
       id="path359" />
    <path
       d="m 595.04999,822 v -16.06 h 4.774 q 1.628,0 2.816,0.638 1.21,0.616 1.87,1.738 0.66,1.122 0.66,2.64 v 6.006 q 0,1.518 -0.66,2.662 -0.66,1.122 -1.87,1.76 -1.188,0.616 -2.816,0.616 z m 2.75,-2.464 h 2.024 q 1.188,0 1.892,-0.682 0.704,-0.704 0.704,-1.892 v -6.006 q 0,-1.166 -0.704,-1.848 -0.704,-0.704 -1.892,-0.704 h -2.024 z"
       id="path361" />
    <path
       d="m 617.814,822 v -13.574 h -4.202 v -2.486 h 11.176 v 2.486 h -4.202 V 822 Z"
       id="path363" />
    <path
       d="m 638.48802,822.22 q -1.562,0 -2.706,-0.572 -1.144,-0.594 -1.782,-1.65 -0.616,-1.078 -0.616,-2.53 v -6.996 q 0,-1.452 0.616,-2.508 0.638,-1.078 1.782,-1.65 1.144,-0.594 2.706,-0.594 1.54,0 2.684,0.594 1.144,0.572 1.782,1.65 0.638,1.056 0.638,2.508 h -2.772 q 0,-1.122 -0.616,-1.716 -0.594,-0.616 -1.716,-0.616 -1.122,0 -1.738,0.594 -0.616,0.594 -0.616,1.716 v 7.018 q 0,1.122 0.616,1.738 0.616,0.616 1.738,0.616 1.122,0 1.716,-0.616 0.616,-0.616 0.616,-1.738 v -1.782 h -2.728 v -2.376 h 5.5 v 4.158 q 0,1.452 -0.638,2.53 -0.638,1.056 -1.782,1.65 -1.144,0.572 -2.684,0.572 z"
       id="path365" />
    <path
       d="m 676.80004,816.39 q -0.924,0 -1.496,-0.55 -0.55,-0.572 -0.55,-1.474 0,-0.902 0.55,-1.474 0.572,-0.572 1.496,-0.572 0.924,0 1.474,0.572 0.572,0.572 0.572,1.474 0,0.902 -0.572,1.474 -0.55,0.55 -1.474,0.55 z"
       id="path367" />
    <path
       d="m 710.53603,822 v -16.06 h 9.636 v 2.42 h -6.93 v 4.18 h 6.16 v 2.332 h -6.16 v 4.708 h 6.93 V 822 Z"
       id="path369" />
    <path
       d="m 728.98805,822 v -16.06 h 3.586 l 1.804,6.908 1.826,-6.908 h 3.608 V 822 h -2.574 v -6.754 q 0,-1.386 0.066,-2.86 0.088,-1.496 0.198,-2.882 0.11,-1.408 0.242,-2.552 l -2.266,8.074 h -2.266 l -2.178,-7.876 q 0.198,1.518 0.352,3.63 0.176,2.09 0.176,4.466 V 822 Z"
       id="path371" />
    <path
       d="m 748.69406,822 v -16.06 h 4.928 q 2.31,0 3.674,1.122 1.386,1.122 1.386,3.014 0,1.32 -0.77,2.266 -0.748,0.946 -1.958,1.144 v 0.044 q 0.902,0.11 1.606,0.66 0.704,0.528 1.1,1.386 0.396,0.836 0.396,1.848 0,1.386 -0.638,2.42 -0.638,1.034 -1.804,1.606 -1.166,0.55 -2.75,0.55 z m 2.684,-9.438 h 2.2 q 1.078,0 1.716,-0.572 0.638,-0.594 0.638,-1.606 0,-0.99 -0.638,-1.562 -0.616,-0.594 -1.716,-0.594 h -2.2 z m 0,7.15 h 2.332 q 1.21,0 1.892,-0.638 0.704,-0.66 0.704,-1.782 0,-1.122 -0.704,-1.804 -0.682,-0.704 -1.892,-0.704 h -2.332 z"
       id="path373" />
    <path
       d="m 767.89407,822 v -16.06 h 5.06 q 1.606,0 2.772,0.594 1.188,0.594 1.848,1.672 0.66,1.056 0.66,2.508 0,1.606 -0.792,2.816 -0.792,1.188 -2.134,1.694 l 3.146,6.776 h -3.014 l -2.816,-6.38 h -2.002 V 822 Z m 2.728,-8.8 h 2.332 q 1.166,0 1.826,-0.638 0.66,-0.638 0.66,-1.76 0,-1.122 -0.682,-1.782 -0.66,-0.66 -1.804,-0.66 h -2.332 z"
       id="path375" />
    <path
       d="m 792.00008,822.22 q -2.31,0 -3.674,-1.32 -1.342,-1.32 -1.342,-3.652 v -6.556 q 0,-2.332 1.342,-3.652 1.364,-1.32 3.674,-1.32 2.31,0 3.652,1.32 1.364,1.32 1.364,3.63 v 6.578 q 0,2.332 -1.364,3.652 -1.342,1.32 -3.652,1.32 z m 0,-2.42 q 1.122,0 1.694,-0.594 0.572,-0.616 0.572,-1.738 v -6.996 q 0,-1.122 -0.572,-1.716 -0.572,-0.616 -1.694,-0.616 -1.122,0 -1.694,0.616 -0.572,0.594 -0.572,1.716 v 6.996 q 0,1.122 0.572,1.738 0.572,0.594 1.694,0.594 z"
       id="path377" />
    <path
       d="m 806.5801,822 v -2.486 h 3.234 v -11.088 h -3.234 v -2.486 h 9.24 v 2.486 h -3.234 v 11.088 h 3.234 V 822 Z"
       id="path379" />
    <path
       d="m 825.45008,822 v -16.06 h 4.774 q 1.628,0 2.816,0.638 1.21,0.616 1.87,1.738 0.66,1.122 0.66,2.64 v 6.006 q 0,1.518 -0.66,2.662 -0.66,1.122 -1.87,1.76 -1.188,0.616 -2.816,0.616 z m 2.75,-2.464 h 2.024 q 1.188,0 1.892,-0.682 0.704,-0.704 0.704,-1.892 v -6.006 q 0,-1.166 -0.704,-1.848 -0.704,-0.704 -1.892,-0.704 h -2.024 z"
       id="path381" />
    <path
       d="m 844.93609,822 v -16.06 h 9.636 v 2.42 h -6.93 v 4.18 h 6.16 v 2.332 h -6.16 v 4.708 h 6.93 V 822 Z"
       id="path383" />
    <path
       d="m 863.8941,822 v -16.06 h 5.06 q 1.606,0 2.772,0.594 1.188,0.594 1.848,1.672 0.66,1.056 0.66,2.508 0,1.606 -0.792,2.816 -0.792,1.188 -2.134,1.694 l 3.146,6.776 h -3.014 l -2.816,-6.38 h -2.002 V 822 Z m 2.728,-8.8 h 2.332 q 1.166,0 1.826,-0.638 0.66,-0.638 0.66,-1.76 0,-1.122 -0.682,-1.782 -0.66,-0.66 -1.804,-0.66 h -2.332 z"
       id="path385" />
    <path
       d="m 886.61411,822 v -5.83 l -4.708,-10.23 h 2.904 l 2.486,5.566 q 0.286,0.66 0.484,1.298 0.198,0.638 0.264,0.99 0.088,-0.352 0.264,-0.99 0.198,-0.638 0.484,-1.298 l 2.442,-5.566 h 2.86 l -4.708,10.23 V 822 Z"
       id="path387" />
  </g>
</svg>
