<?xml version="1.0" encoding="UTF-8" standalone="no"?>
<svg
   viewBox="0 0 600 160"
   role="img"
   aria-label="Metro Ink and Stitch"
   version="1.1"
   id="svg58"
   xmlns="http://www.w3.org/2000/svg"
   xmlns:svg="http://www.w3.org/2000/svg">
  <defs
     id="defs62" />
  <!-- Mark on left: skyline icon + ink drop -->
  <g
     transform="translate(80,80)"
     stroke="#0d0d0d"
     fill="#0d0d0d"
     id="g44">
    <!-- baseline -->
    <path
       id="line2"
       style="fill:none;stroke-width:2"
       d="M -58,22 H 58" />
    <!-- Reunion Tower -->
    <g
       transform="translate(-40)"
       id="g14">
      <path
         id="rect4"
         d="M -2,-22 H 2 V 22 H -2 Z" />
      <path
         id="circle6"
         d="m 9,-26 a 9,9 0 0 1 -9,9 9,9 0 0 1 -9,-9 9,9 0 0 1 9,-9 9,9 0 0 1 9,9 z" />
      <path
         id="line8"
         style="stroke:#f3ecdb;stroke-width:1.2"
         d="M -7,-29 H 7" />
      <path
         id="line10"
         style="stroke:#f3ecdb;stroke-width:1.2"
         d="M -8,-26 H 8" />
      <path
         id="line12"
         style="stroke:#f3ecdb;stroke-width:1.2"
         d="M -7,-23 H 7" />
    </g>
    <!-- Bank of America (tall) -->
    <g
       transform="translate(-18)"
       id="g24">
      <path
         id="rect16"
         d="M -9,-50 H 9 V 22 H -9 Z" />
      <path
         id="line18"
         style="stroke:#f3ecdb;stroke-width:0.8"
         d="M -5,-46 V 20" />
      <path
         id="line20"
         style="stroke:#f3ecdb;stroke-width:0.8"
         d="M 0,-46 V 20" />
      <path
         id="line22"
         style="stroke:#f3ecdb;stroke-width:0.8"
         d="M 5,-46 V 20" />
    </g>
    <!-- Comerica (pyramid cap) -->
    <g
       transform="translate(8)"
       id="g34">
      <path
         id="rect26"
         d="M -10,-35 H 10 V 22 H -10 Z" />
      <path
         id="polygon28"
         d="M -10,-35 H 10 L 0,-50 Z" />
      <path
         id="line30"
         style="stroke:#f3ecdb;stroke-width:0.8"
         d="M -5,-32 V 20" />
      <path
         id="line32"
         style="stroke:#f3ecdb;stroke-width:0.8"
         d="M 5,-32 V 20" />
    </g>
    <!-- Fountain Place (faceted) -->
    <g
       transform="translate(35)"
       id="g40">
      <path
         id="polygon36"
         d="m 3,-44 9,14 v 52 h -24 v -52 l 9,-14 z" />
      <path
         id="line38"
         style="stroke:#f3ecdb;stroke-width:0.8"
         d="M 0,-38 V 20" />
    </g>
    <!-- Red ink drop -->
    <path
       id="circle42"
       style="fill:#e63027"
       d="m 59,14 a 4,4 0 0 1 -4,4 4,4 0 0 1 -4,-4 4,4 0 0 1 4,-4 4,4 0 0 1 4,4 z" />
  </g>
  <!-- Vertical divider -->
  <line
     x1="160"
     y1="40"
     x2="160"
     y2="120"
     stroke="#0d0d0d"
     stroke-width="2"
     id="line46" />
  <!-- Wordmark on right -->
  <g
     id="g56">
    <g
       aria-label="METRO"
       id="text48"
       style="font-weight:900;font-size:36px;font-family:'Archivo Black', 'Helvetica Neue', Impact, sans-serif;letter-spacing:-1;fill:#0d0d0d">
      <path
         d="m 203.94,68 v -8.928 q 0,-1.656 0.108,-3.384 0.144,-1.764 0.288,-2.952 0.144,-1.188 0.18,-1.512 h -0.144 L 199.8,68 h -6.228 l -4.608,-16.74 h -0.144 q 0.036,0.324 0.18,1.512 0.18,1.152 0.324,2.916 0.144,1.728 0.144,3.384 V 68 H 182.16 V 43.232 h 11.232 l 3.744,14.292 h 0.144 l 3.708,-14.292 h 10.836 V 68 Z"
         id="path81" />
      <path
         d="m 215.64801,43.232 h 21.42 v 5.94 h -13.464 v 3.42 h 11.52 v 5.688 h -11.52 v 3.78 h 13.716 V 68 h -21.672 z"
         id="path83" />
      <path
         d="M 254.89601,49.568 V 68 h -7.956 V 49.568 h -8.136 v -6.336 h 24.192 v 6.336 z"
         id="path85" />
      <path
         d="m 289.14002,50.828 q 0,2.268 -1.224,4.104 -1.224,1.836 -3.564,2.7 l 5.508,10.368 h -8.928 l -4.392,-9.036 h -2.952 V 68 h -7.956 V 43.232 h 15.156 q 2.664,0 4.536,1.044 1.908,1.008 2.844,2.772 0.972,1.728 0.972,3.78 z m -8.1,0.324 q 0,-0.972 -0.648,-1.62 -0.648,-0.648 -1.584,-0.648 h -5.22 v 4.572 h 5.22 q 0.936,0 1.584,-0.648 0.648,-0.684 0.648,-1.656 z"
         id="path87" />
      <path
         d="m 304.34001,42.8 q 6.408,0 9.9,3.276 3.492,3.276 3.492,9.54 0,6.264 -3.492,9.54 -3.492,3.276 -9.9,3.276 -6.408,0 -9.9,-3.24 -3.456,-3.276 -3.456,-9.576 0,-6.3 3.456,-9.54 3.492,-3.276 9.9,-3.276 z m 0,5.94 q -2.556,0 -3.888,1.548 -1.332,1.548 -1.332,4.176 v 2.304 q 0,2.628 1.332,4.176 1.332,1.548 3.888,1.548 2.556,0 3.888,-1.548 1.368,-1.548 1.368,-4.176 v -2.304 q 0,-2.628 -1.368,-4.176 -1.332,-1.548 -3.888,-1.548 z"
         id="path89" />
    </g>
    <g
       aria-label="INK &amp; STITCH"
       id="text52"
       style="font-weight:900;font-size:32px;font-family:'Archivo Black', 'Helvetica Neue', Impact, sans-serif;letter-spacing:-1;fill:#e63027">
      <path
         d="M 182.688,103 V 80.984 h 7.072 V 103 Z"
         id="path92" />
      <path
         d="M 209.56,103 200.312,92.312 V 103 h -6.496 V 80.984 h 6.176 l 9.248,10.848 V 80.984 h 6.496 V 103 Z"
         id="path94" />
      <path
         d="m 234.384,80.984 h 8.768 l -7.904,9.056 8.064,12.96 h -8.352 l -4.576,-8.064 -3.84,3.136 V 103 h -7.072 V 80.984 h 7.072 v 9.408 z"
         id="path96" />
      <path
         d="m 265.76002,80.6 q 3.264,0 5.664,0.8 2.4,0.8 3.68,2.176 1.28,1.376 1.28,3.04 v 0.8 h -5.664 q 0,-0.992 -1.184,-1.632 -1.152,-0.672 -3.36,-0.672 -2.048,0 -3.136,0.8 -1.056,0.768 -1.056,1.888 0,0.992 0.64,1.504 0.672,0.512 1.632,0.512 h 3.328 v 3.936 h -4.032 q -0.992,0 -1.632,0.608 -0.608,0.576 -0.608,1.696 0,1.312 1.088,2.08 1.12,0.736 3.52,0.736 4.8,0 4.8,-2.848 v -6.208 h 10.112 v 3.936 h -4.384 v 2.144 q 0,3.584 -2.56,5.536 -2.528,1.952 -7.936,1.952 -5.568,0 -8.352,-1.792 -2.784,-1.792 -2.784,-4.736 0,-1.92 0.992,-3.296 1.024,-1.408 2.848,-1.984 v -0.128 q -1.376,-0.512 -2.304,-1.76 -0.896,-1.248 -0.896,-2.784 0,-1.728 1.152,-3.168 1.184,-1.44 3.52,-2.272 2.336,-0.864 5.632,-0.864 z"
         style="font-style:italic"
         id="path98" />
      <path
         d="m 301.13602,80.6 q 4.224,0 6.944,1.728 2.72,1.696 2.784,5.056 v 0.384 h -6.624 V 87.64 q 0,-0.96 -0.704,-1.6 -0.704,-0.64 -2.144,-0.64 -1.408,0 -2.176,0.416 -0.736,0.416 -0.736,1.024 0,0.864 1.024,1.28 1.024,0.416 3.296,0.864 2.656,0.544 4.352,1.152 1.728,0.576 3.008,1.92 1.28,1.344 1.312,3.648 0,3.904 -2.656,5.792 -2.624,1.888 -7.04,1.888 -5.152,0 -8.032,-1.728 -2.848,-1.728 -2.848,-6.112 h 6.688 q 0,1.664 0.864,2.24 0.864,0.544 2.688,0.544 1.344,0 2.208,-0.288 0.896,-0.288 0.896,-1.184 0,-0.8 -0.992,-1.184 -0.96,-0.416 -3.168,-0.864 -2.688,-0.576 -4.448,-1.184 -1.76,-0.64 -3.072,-2.08 -1.312,-1.44 -1.312,-3.904 0,-3.616 2.784,-5.312 2.816,-1.728 7.104,-1.728 z"
         id="path100" />
      <path
         d="M 326.66402,86.616 V 103 h -7.072 V 86.616 h -7.232 v -5.632 h 21.504 v 5.632 z"
         id="path102" />
      <path
         d="M 336.41603,103 V 80.984 h 7.072 V 103 Z"
         id="path104" />
      <path
         d="M 360.21603,86.616 V 103 h -7.072 V 86.616 h -7.232 v -5.632 h 21.504 v 5.632 z"
         id="path106" />
      <path
         d="m 379.05602,80.6 q 4.896,0 7.744,2.464 2.848,2.432 2.848,6.976 h -6.752 q 0,-1.92 -1.024,-3.04 -0.992,-1.12 -2.848,-1.12 -2.144,0 -3.168,1.344 -0.992,1.344 -0.992,3.744 v 2.048 q 0,2.368 0.992,3.744 1.024,1.344 3.104,1.344 2.048,0 3.104,-1.056 1.056,-1.056 1.056,-2.976 h 6.528 q 0,4.512 -2.784,6.912 -2.752,2.4 -7.808,2.4 -5.632,0 -8.544,-2.88 -2.88,-2.88 -2.88,-8.512 0,-5.632 2.88,-8.512 2.912,-2.88 8.544,-2.88 z"
         id="path108" />
      <path
         d="m 407.30401,103 v -8.352 h -7.776 V 103 h -7.072 V 80.984 h 7.072 v 8.032 h 7.776 v -8.032 h 7.072 V 103 Z"
         id="path110" />
    </g>
    <g
       aria-label="DFW · CUSTOM APPAREL"
       id="text54"
       style="font-weight:700;font-size:9px;font-family:'JetBrains Mono', 'Courier New', monospace;letter-spacing:3;fill:#0d0d0d">
      <path
         d="m 180.675,128 v -6.57 h 1.953 q 0.666,0 1.152,0.261 0.495,0.252 0.765,0.711 0.27,0.459 0.27,1.08 v 2.457 q 0,0.621 -0.27,1.089 -0.27,0.459 -0.765,0.72 -0.486,0.252 -1.152,0.252 z m 1.125,-1.008 h 0.828 q 0.486,0 0.774,-0.279 0.288,-0.288 0.288,-0.774 v -2.457 q 0,-0.477 -0.288,-0.756 -0.288,-0.288 -0.774,-0.288 H 181.8 Z"
         id="path113" />
      <path
         d="m 189.12,128 v -6.57 h 4.086 v 1.044 h -2.979 v 1.755 h 2.745 v 1.044 h -2.727 V 128 Z"
         id="path115" />
      <path
         d="m 197.61001,128 -0.684,-6.57 h 0.936 l 0.414,4.59 q 0.018,0.234 0.036,0.603 0.027,0.36 0.027,0.612 0.027,-0.252 0.054,-0.612 0.036,-0.369 0.063,-0.603 l 0.576,-4.59 h 0.963 l 0.54,4.59 q 0.027,0.234 0.063,0.603 0.045,0.36 0.072,0.612 0.009,-0.252 0.027,-0.612 0.027,-0.369 0.045,-0.603 l 0.405,-4.59 h 0.927 l -0.72,6.57 h -1.242 l -0.504,-4.608 q -0.027,-0.261 -0.054,-0.63 -0.027,-0.378 -0.045,-0.621 -0.018,0.243 -0.045,0.621 -0.027,0.369 -0.054,0.63 l -0.549,4.608 z"
         id="path117" />
      <path
         d="m 216.30001,125.705 q -0.378,0 -0.612,-0.225 -0.225,-0.234 -0.225,-0.603 0,-0.369 0.225,-0.603 0.234,-0.234 0.612,-0.234 0.378,0 0.603,0.234 0.234,0.234 0.234,0.603 0,0.369 -0.234,0.603 -0.225,0.225 -0.603,0.225 z"
         id="path119" />
      <path
         d="m 233.17202,128.09 q -0.639,0 -1.107,-0.234 -0.468,-0.243 -0.729,-0.675 -0.252,-0.441 -0.252,-1.035 v -2.862 q 0,-0.594 0.252,-1.026 0.261,-0.441 0.729,-0.675 0.468,-0.243 1.107,-0.243 0.63,0 1.098,0.243 0.468,0.234 0.729,0.675 0.261,0.432 0.261,1.026 h -1.134 q 0,-0.459 -0.252,-0.702 -0.243,-0.252 -0.702,-0.252 -0.459,0 -0.711,0.252 -0.252,0.243 -0.252,0.702 v 2.862 q 0,0.459 0.252,0.711 0.252,0.243 0.711,0.243 0.459,0 0.702,-0.243 0.252,-0.252 0.252,-0.711 h 1.134 q 0,0.594 -0.261,1.035 -0.261,0.432 -0.729,0.675 -0.468,0.234 -1.098,0.234 z"
         id="path121" />
      <path
         d="m 241.50003,128.09 q -0.963,0 -1.512,-0.522 -0.54,-0.531 -0.54,-1.44 v -4.698 h 1.134 v 4.689 q 0,0.468 0.234,0.729 0.234,0.261 0.684,0.261 0.441,0 0.675,-0.261 0.243,-0.261 0.243,-0.729 v -4.689 h 1.134 v 4.698 q 0,0.909 -0.54,1.44 -0.54,0.522 -1.512,0.522 z"
         id="path123" />
      <path
         d="m 249.92703,128.09 q -0.666,0 -1.17,-0.234 -0.495,-0.234 -0.774,-0.666 -0.27,-0.441 -0.27,-1.044 h 1.107 q 0,0.441 0.297,0.702 0.306,0.261 0.81,0.261 0.486,0 0.765,-0.252 0.288,-0.261 0.288,-0.693 0,-0.324 -0.189,-0.567 -0.18,-0.252 -0.522,-0.342 l -0.882,-0.225 q -0.711,-0.18 -1.125,-0.675 -0.414,-0.495 -0.414,-1.179 0,-0.837 0.549,-1.332 0.549,-0.504 1.467,-0.504 0.621,0 1.08,0.225 0.468,0.225 0.72,0.639 0.252,0.405 0.252,0.954 h -1.098 q 0,-0.378 -0.261,-0.612 -0.261,-0.234 -0.693,-0.234 -0.423,0 -0.675,0.234 -0.243,0.225 -0.243,0.594 0,0.306 0.171,0.504 0.18,0.198 0.495,0.288 l 0.909,0.225 q 0.729,0.18 1.143,0.72 0.423,0.54 0.423,1.287 0,0.585 -0.27,1.017 -0.261,0.432 -0.747,0.675 -0.486,0.234 -1.143,0.234 z"
         id="path125" />
      <path
         d="m 257.73303,128 v -5.553 h -1.719 v -1.017 h 4.572 v 1.017 h -1.719 V 128 Z"
         id="path127" />
      <path
         d="m 266.70003,128.09 q -0.945,0 -1.503,-0.54 -0.549,-0.54 -0.549,-1.494 v -2.682 q 0,-0.954 0.549,-1.494 0.558,-0.54 1.503,-0.54 0.945,0 1.494,0.54 0.558,0.54 0.558,1.485 v 2.691 q 0,0.954 -0.558,1.494 -0.549,0.54 -1.494,0.54 z m 0,-0.99 q 0.459,0 0.693,-0.243 0.234,-0.252 0.234,-0.711 v -2.862 q 0,-0.459 -0.234,-0.702 -0.234,-0.252 -0.693,-0.252 -0.459,0 -0.693,0.252 -0.234,0.243 -0.234,0.702 v 2.862 q 0,0.459 0.234,0.711 0.234,0.243 0.693,0.243 z"
         id="path129" />
      <path
         d="m 272.88604,128 v -6.57 h 1.467 l 0.738,2.826 0.747,-2.826 h 1.476 V 128 h -1.053 v -2.763 q 0,-0.567 0.027,-1.17 0.036,-0.612 0.081,-1.179 0.045,-0.576 0.099,-1.044 l -0.927,3.303 h -0.927 l -0.891,-3.222 q 0.081,0.621 0.144,1.485 0.072,0.855 0.072,1.827 V 128 Z"
         id="path131" />
      <path
         d="m 289.51504,128 1.656,-6.57 h 1.449 l 1.665,6.57 h -1.152 l -0.36,-1.593 h -1.746 l -0.36,1.593 z m 1.719,-2.511 h 1.332 l -0.396,-1.764 q -0.099,-0.441 -0.171,-0.792 -0.072,-0.36 -0.099,-0.522 -0.027,0.162 -0.099,0.522 -0.072,0.351 -0.171,0.783 z"
         id="path133" />
      <path
         d="m 298.29305,128 v -6.57 h 2.187 q 0.657,0 1.143,0.252 0.495,0.252 0.765,0.711 0.27,0.45 0.27,1.062 0,0.612 -0.27,1.071 -0.27,0.45 -0.765,0.702 -0.486,0.252 -1.143,0.252 h -1.062 V 128 Z m 1.125,-3.51 h 1.062 q 0.477,0 0.756,-0.288 0.279,-0.288 0.279,-0.747 0,-0.459 -0.279,-0.747 -0.279,-0.288 -0.756,-0.288 h -1.062 z"
         id="path135" />
      <path
         d="m 306.69305,128 v -6.57 h 2.187 q 0.657,0 1.143,0.252 0.495,0.252 0.765,0.711 0.27,0.45 0.27,1.062 0,0.612 -0.27,1.071 -0.27,0.45 -0.765,0.702 -0.486,0.252 -1.143,0.252 h -1.062 V 128 Z m 1.125,-3.51 h 1.062 q 0.477,0 0.756,-0.288 0.279,-0.288 0.279,-0.747 0,-0.459 -0.279,-0.747 -0.279,-0.288 -0.756,-0.288 h -1.062 z"
         id="path137" />
      <path
         d="m 314.71505,128 1.656,-6.57 h 1.449 l 1.665,6.57 h -1.152 l -0.36,-1.593 h -1.746 l -0.36,1.593 z m 1.719,-2.511 h 1.332 l -0.396,-1.764 q -0.099,-0.441 -0.171,-0.792 -0.072,-0.36 -0.099,-0.522 -0.027,0.162 -0.099,0.522 -0.072,0.351 -0.171,0.783 z"
         id="path139" />
      <path
         d="m 323.49306,128 v -6.57 h 2.07 q 0.657,0 1.134,0.243 0.486,0.243 0.756,0.684 0.27,0.432 0.27,1.026 0,0.657 -0.324,1.152 -0.324,0.486 -0.873,0.693 l 1.287,2.772 h -1.233 l -1.152,-2.61 h -0.819 V 128 Z m 1.116,-3.6 h 0.954 q 0.477,0 0.747,-0.261 0.27,-0.261 0.27,-0.72 0,-0.459 -0.279,-0.729 -0.27,-0.27 -0.738,-0.27 h -0.954 z"
         id="path141" />
      <path
         d="m 331.99206,128 v -6.57 h 3.942 v 0.99 h -2.835 v 1.71 h 2.52 v 0.954 h -2.52 v 1.926 h 2.835 V 128 Z"
         id="path143" />
      <path
         d="m 340.68907,128 v -6.57 h 1.125 v 5.553 h 2.79 V 128 Z"
         id="path145" />
    </g>
  </g>
</svg>
